<svg width="20" height="20" viewBox="0 0 20 20" fill="none" xmlns="http://www.w3.org/2000/svg">
<path d="M9.02301 8.18999C9.48929 7.72386 9.80685 7.12992 9.93555 6.48329C10.0643 5.83666 9.9983 5.16638 9.74604 4.55724C9.49377 3.94809 9.06653 3.42744 8.51835 3.06112C7.97016 2.6948 7.32566 2.49928 6.66634 2.49928C6.00703 2.49928 5.36252 2.6948 4.81434 3.06112C4.26615 3.42744 3.83891 3.94809 3.58665 4.55724C3.33439 5.16638 3.26843 5.83666 3.39713 6.48329C3.52583 7.12992 3.8434 7.72386 4.30968 8.18999L6.66634 10.5475L9.02301 8.18999Z" stroke="white" stroke-width="1.25" stroke-linecap="round" stroke-linejoin="round"/>
<path d="M6.66699 5.83333V5.84166" stroke="white" stroke-width="1.25" stroke-linecap="round" stroke-linejoin="round"/>
<path d="M15.69 14.8567C16.1563 14.3905 16.4738 13.7966 16.6025 13.15C16.7312 12.5033 16.6653 11.8331 16.413 11.2239C16.1608 10.6148 15.7335 10.0941 15.1853 9.72779C14.6372 9.36148 13.9926 9.16595 13.3333 9.16595C12.674 9.16595 12.0295 9.36148 11.4813 9.72779C10.9331 10.0941 10.5059 10.6148 10.2536 11.2239C10.0014 11.8331 9.93543 12.5033 10.0641 13.15C10.1928 13.7966 10.5104 14.3905 10.9767 14.8567L13.3333 17.2142L15.69 14.8567Z" stroke="white" stroke-width="1.25" stroke-linecap="round" stroke-linejoin="round"/>
<path d="M13.333 12.5V12.5083" stroke="white" stroke-width="1.25" stroke-linecap="round" stroke-linejoin="round"/>
</svg>
