<svg width="176" height="176" viewBox="0 0 176 176" fill="none" xmlns="http://www.w3.org/2000/svg">
<circle cx="88" cy="88" r="84" stroke="#DBEAFE" stroke-width="8"/>
<path fill-rule="evenodd" clip-rule="evenodd" d="M164.719 60.6549C167.813 61.9819 170.984 59.1445 169.76 56.0088C156.961 23.2253 125.07 0 87.7553 0C75.956 0 64.6991 2.32223 54.4167 6.53459C51.3023 7.81047 51.4347 12.0622 54.5279 13.389L55.0526 13.6141C56.0529 14.0432 57.183 14.0414 58.1944 13.639C67.3393 10.0004 77.3137 8 87.7553 8C121.394 8 150.184 28.7618 162.009 58.1702C162.415 59.1793 163.192 59.9998 164.192 60.4286L164.719 60.6549Z" fill="#4338CA"/>
<path d="M56.9614 87H71.9188V83.6974H62.4159V83.5483L66.1766 79.7237C70.4166 75.6541 71.5885 73.6726 71.5885 71.2116C71.5885 67.5575 68.6162 64.8835 64.227 64.8835C59.9017 64.8835 56.8335 67.5682 56.8335 71.7124H60.5942C60.5942 69.4858 62.0004 68.0902 64.1737 68.0902C66.2512 68.0902 67.7959 69.358 67.7959 71.4141C67.7959 73.2358 66.6879 74.5355 64.536 76.7195L56.9614 84.1449V87ZM83.6588 87.4155C88.9216 87.4261 92.0644 83.2713 92.0644 76.1122C92.0644 68.9957 88.9003 64.8835 83.6588 64.8835C78.4173 64.8835 75.2639 68.9851 75.2533 76.1122C75.2533 83.2607 78.396 87.4155 83.6588 87.4155ZM83.6588 84.081C80.9422 84.081 79.2377 81.3537 79.2483 76.1122C79.259 70.9134 80.9529 68.1754 83.6588 68.1754C86.3754 68.1754 88.0693 70.9134 88.08 76.1122C88.08 81.3537 86.3861 84.081 83.6588 84.081ZM107.269 82.9091C107.28 85.4446 108.889 87.6072 111.882 87.6072C114.865 87.6072 116.506 85.4446 116.495 82.9091V81.7585C116.506 79.2017 114.908 77.0604 111.882 77.0604C108.931 77.0604 107.28 79.223 107.269 81.7585V82.9091ZM96.1792 70.4233C96.1899 72.9588 97.7986 75.1001 100.803 75.1001C103.775 75.1001 105.416 72.9801 105.405 70.4233V69.2727C105.416 66.7159 103.818 64.5746 100.803 64.5746C97.8625 64.5746 96.1899 66.7159 96.1792 69.2727V70.4233ZM97.1381 87H99.8121L114.812 65.1818H112.138L97.1381 87ZM110.05 81.7585C110.061 80.6293 110.54 79.4893 111.882 79.4893C113.289 79.4893 113.704 80.6293 113.693 81.7585V82.9091C113.704 84.0384 113.246 85.157 111.882 85.157C110.519 85.157 110.061 84.0277 110.05 82.9091V81.7585ZM98.9811 69.2727C98.9917 68.1541 99.4498 67.0036 100.803 67.0036C102.209 67.0036 102.614 68.1435 102.603 69.2727V70.4233C102.614 71.5526 102.166 72.6712 100.803 72.6712C99.4392 72.6712 98.9917 71.5526 98.9811 70.4233V69.2727Z" fill="#18181B"/>
<path d="M56.8118 105C56.38 102.614 54.4709 101.205 52.13 101.205C49.1527 101.205 46.9936 103.5 46.9936 107.182C46.9936 110.864 49.1527 113.159 52.13 113.159C54.4709 113.159 56.38 111.75 56.8118 109.364H55.4027C55.0618 110.977 53.6754 111.841 52.13 111.841C50.0163 111.841 48.3572 110.205 48.3572 107.182C48.3572 104.159 50.0163 102.523 52.13 102.523C53.6754 102.523 55.0618 103.386 55.4027 105H56.8118ZM62.4524 113.182C64.8161 113.182 66.407 111.386 66.407 108.682C66.407 105.955 64.8161 104.159 62.4524 104.159C60.0888 104.159 58.4979 105.955 58.4979 108.682C58.4979 111.386 60.0888 113.182 62.4524 113.182ZM62.4524 111.977C60.657 111.977 59.8388 110.432 59.8388 108.682C59.8388 106.932 60.657 105.364 62.4524 105.364C64.2479 105.364 65.0661 106.932 65.0661 108.682C65.0661 110.432 64.2479 111.977 62.4524 111.977ZM68.4538 113H69.7947V107.545C69.7947 106.267 70.7266 105.364 71.772 105.364C72.7891 105.364 73.4993 106.028 73.4993 107.023V113H74.8629V107.318C74.8629 106.193 75.5675 105.364 76.7947 105.364C77.7493 105.364 78.5675 105.869 78.5675 107.159V113H79.9084V107.159C79.9084 105.108 78.8061 104.159 77.2493 104.159C75.9993 104.159 75.0845 104.733 74.6357 105.636H74.5447C74.1129 104.705 73.3516 104.159 72.2038 104.159C71.0675 104.159 70.2266 104.705 69.8629 105.636H69.7493V104.273H68.4538V113ZM82.3601 116.273H83.701V111.659H83.8146C84.1101 112.136 84.6783 113.182 86.3601 113.182C88.5419 113.182 90.0646 111.432 90.0646 108.659C90.0646 105.909 88.5419 104.159 86.3374 104.159C84.6328 104.159 84.1101 105.205 83.8146 105.659H83.6555V104.273H82.3601V116.273ZM83.6783 108.636C83.6783 106.682 84.5419 105.364 86.1783 105.364C87.8828 105.364 88.7237 106.795 88.7237 108.636C88.7237 110.5 87.8601 111.977 86.1783 111.977C84.5646 111.977 83.6783 110.614 83.6783 108.636ZM93.451 101.364H92.1101V113H93.451V101.364ZM99.5661 113.182C101.339 113.182 102.634 112.295 103.043 110.977L101.748 110.614C101.407 111.523 100.617 111.977 99.5661 111.977C97.9922 111.977 96.907 110.96 96.8445 109.091H103.18V108.523C103.18 105.273 101.248 104.159 99.4297 104.159C97.0661 104.159 95.4979 106.023 95.4979 108.705C95.4979 111.386 97.0433 113.182 99.5661 113.182ZM96.8445 107.932C96.9354 106.574 97.8956 105.364 99.4297 105.364C100.884 105.364 101.816 106.455 101.816 107.932H96.8445ZM109.015 104.273H107.151V102.182H105.81V104.273H104.492V105.409H105.81V110.864C105.81 112.386 107.038 113.114 108.174 113.114C108.674 113.114 108.992 113.023 109.174 112.955L108.901 111.75C108.788 111.773 108.606 111.818 108.31 111.818C107.719 111.818 107.151 111.636 107.151 110.5V105.409H109.015V104.273ZM114.597 113.182C116.37 113.182 117.665 112.295 118.075 110.977L116.779 110.614C116.438 111.523 115.648 111.977 114.597 111.977C113.023 111.977 111.938 110.96 111.876 109.091H118.211V108.523C118.211 105.273 116.279 104.159 114.461 104.159C112.097 104.159 110.529 106.023 110.529 108.705C110.529 111.386 112.075 113.182 114.597 113.182ZM111.876 107.932C111.967 106.574 112.927 105.364 114.461 105.364C115.915 105.364 116.847 106.455 116.847 107.932H111.876ZM123.546 113.182C125.228 113.182 125.796 112.136 126.092 111.659H126.251V113H127.546V101.364H126.205V105.659H126.092C125.796 105.205 125.273 104.159 123.569 104.159C121.364 104.159 119.842 105.909 119.842 108.659C119.842 111.432 121.364 113.182 123.546 113.182ZM123.728 111.977C122.046 111.977 121.183 110.5 121.183 108.636C121.183 106.795 122.023 105.364 123.728 105.364C125.364 105.364 126.228 106.682 126.228 108.636C126.228 110.614 125.342 111.977 123.728 111.977Z" fill="#18181B"/>
</svg>
