<svg width="84" height="84" viewBox="0 0 84 84" fill="none" xmlns="http://www.w3.org/2000/svg">
<path d="M44.8455 58.779L64.75 64.75M19.25 19.25L25.221 39.1475L19.25 19.25Z" stroke="#4B5563" stroke-width="5.25" stroke-linecap="round" stroke-linejoin="round"/>
<path d="M40.8904 43.1095L64.7499 19.25" stroke="#4B5563" stroke-width="5.25" stroke-linecap="round" stroke-linejoin="round"/>
<path d="M19.25 24.5C22.1495 24.5 24.5 22.1495 24.5 19.25C24.5 16.3505 22.1495 14 19.25 14C16.3505 14 14 16.3505 14 19.25C14 22.1495 16.3505 24.5 19.25 24.5Z" stroke="#4B5563" stroke-width="5.25" stroke-linecap="round" stroke-linejoin="round"/>
<path d="M64.75 24.5C67.6495 24.5 70 22.1495 70 19.25C70 16.3505 67.6495 14 64.75 14C61.8505 14 59.5 16.3505 59.5 19.25C59.5 22.1495 61.8505 24.5 64.75 24.5Z" stroke="#4B5563" stroke-width="5.25" stroke-linecap="round" stroke-linejoin="round"/>
<path d="M64.75 70C67.6495 70 70 67.6495 70 64.75C70 61.8505 67.6495 59.5 64.75 59.5C61.8505 59.5 59.5 61.8505 59.5 64.75C59.5 67.6495 61.8505 70 64.75 70Z" stroke="#4B5563" stroke-width="5.25" stroke-linecap="round" stroke-linejoin="round"/>
<path d="M29.75 70C38.4485 70 45.5 62.9485 45.5 54.25C45.5 45.5515 38.4485 38.5 29.75 38.5C21.0515 38.5 14 45.5515 14 54.25C14 62.9485 21.0515 70 29.75 70Z" stroke="#4B5563" stroke-width="5.25" stroke-linecap="round" stroke-linejoin="round"/>
</svg>
