<svg width="84" height="84" viewBox="0 0 84 84" fill="none" xmlns="http://www.w3.org/2000/svg">
<path d="M63 28C65.7848 28 68.4555 29.1062 70.4246 31.0754C72.3938 33.0445 73.5 35.7152 73.5 38.5C73.5 41.2848 72.3938 43.9555 70.4246 45.9246C68.4555 47.8938 65.7848 49 63 49" stroke="#4B5563" stroke-width="5.25" stroke-linecap="round" stroke-linejoin="round"/>
<path d="M35 28V66.5C35 67.4283 34.6313 68.3185 33.9749 68.9749C33.3185 69.6313 32.4283 70 31.5 70H28C27.0717 70 26.1815 69.6313 25.5251 68.9749C24.8687 68.3185 24.5 67.4283 24.5 66.5V49" stroke="#4B5563" stroke-width="5.25" stroke-linecap="round" stroke-linejoin="round"/>
<path d="M42 28.0001L57.834 14.8051C58.2941 14.4218 58.8539 14.1777 59.4478 14.1012C60.0416 14.0248 60.645 14.1192 61.1872 14.3733C61.7293 14.6275 62.1878 15.031 62.5089 15.5364C62.8299 16.0418 63.0003 16.6283 63 17.2271V59.7731C63.0003 60.3718 62.8299 60.9583 62.5089 61.4637C62.1878 61.9692 61.7293 62.3726 61.1872 62.6268C60.645 62.881 60.0416 62.9754 59.4478 62.8989C58.8539 62.8224 58.2941 62.5783 57.834 62.1951L42 49.0001H14C13.0717 49.0001 12.1815 48.6313 11.5251 47.9749C10.8687 47.3186 10.5 46.4283 10.5 45.5001V31.5001C10.5 30.5718 10.8687 29.6816 11.5251 29.0252C12.1815 28.3688 13.0717 28.0001 14 28.0001H42" stroke="#4B5563" stroke-width="5.25" stroke-linecap="round" stroke-linejoin="round"/>
</svg>
