<svg width="50" height="50" viewBox="0 0 50 50" fill="none" xmlns="http://www.w3.org/2000/svg">
<path d="M20.833 6.66659C17.574 7.42209 14.5766 9.03575 12.1515 11.3402C9.72641 13.6447 7.96204 16.556 7.04139 19.7722C6.12073 22.9884 6.07733 26.3923 6.91568 29.6309C7.75403 32.8696 9.44359 35.8249 11.8091 38.1905C14.1747 40.556 17.13 42.2456 20.3686 43.0839C23.6073 43.9223 27.0112 43.8789 30.2274 42.9582C33.4436 42.0375 36.3549 40.2732 38.6594 37.8481C40.9638 35.423 42.5775 32.4255 43.333 29.1666C43.333 28.6141 43.1135 28.0842 42.7228 27.6935C42.3321 27.3028 41.8022 27.0833 41.2497 27.0833H33.333C32.9542 28.5395 32.1975 29.8699 31.1394 30.9397C30.0813 32.0095 28.7594 32.7809 27.3074 33.1757C25.8554 33.5705 24.3249 33.5747 22.8708 33.1879C21.4166 32.8011 20.0905 32.0371 19.0265 30.9731C17.9625 29.9091 17.1984 28.583 16.8117 27.1288C16.4249 25.6747 16.4291 24.1442 16.8239 22.6922C17.2187 21.2402 17.99 19.9183 19.0599 18.8602C20.1297 17.8021 21.4601 17.0453 22.9163 16.6666V8.33326C22.8904 8.08643 22.8158 7.84721 22.6968 7.62944C22.5777 7.41168 22.4166 7.21971 22.2229 7.06468C22.0291 6.90964 21.8064 6.79463 21.5678 6.72629C21.3293 6.65795 21.0795 6.63766 20.833 6.66659Z" stroke="#4B5563" stroke-width="3.25" stroke-linecap="round" stroke-linejoin="round"/>
<path d="M31.25 7.29163C33.8953 8.22305 36.2979 9.736 38.2809 11.719C40.264 13.7021 41.7769 16.1047 42.7083 18.75H33.3333C32.6946 18.0019 31.998 17.3054 31.25 16.6666V7.29163Z" stroke="#4B5563" stroke-width="3.25" stroke-linecap="round" stroke-linejoin="round"/>
</svg>
