<svg width="22" height="18" viewBox="0 0 22 18" fill="none" xmlns="http://www.w3.org/2000/svg">
<path d="M21.0805 4.89185L11.3394 0.0791891C11.2338 0.0271352 11.1177 6.10352e-05 11 6.10352e-05C10.8823 6.10352e-05 10.7662 0.0271352 10.6606 0.0791891L0.921875 4.89185C0.795941 4.95312 0.689677 5.04842 0.615117 5.16698C0.540557 5.28553 0.500679 5.42258 0.5 5.56263V17.25C0.500552 17.3491 0.520624 17.4471 0.559067 17.5384C0.597511 17.6297 0.653574 17.7126 0.724051 17.7822C0.794528 17.8519 0.87804 17.907 0.969813 17.9443C1.06159 17.9817 1.15982 18.0006 1.25891 18H20.7411C20.8402 18.0006 20.9384 17.9817 21.0302 17.9443C21.122 17.907 21.2055 17.8519 21.2759 17.7822C21.3464 17.7126 21.4025 17.6297 21.4409 17.5384C21.4794 17.4471 21.4994 17.3491 21.5 17.25V5.56263C21.4995 5.42283 21.46 5.28595 21.3859 5.16742C21.3117 5.04889 21.206 4.95345 21.0805 4.89185ZM11 1.58857L19.1094 5.59357L10.8734 9.66138L2.76406 5.65638L11 1.58857Z" fill="#4338CA"/>
</svg>
