<svg width="22" height="22" viewBox="0 0 22 22" fill="none" xmlns="http://www.w3.org/2000/svg">
<path d="M21.4503 16.3503C21.2056 16.0897 20.3417 15.3191 18.7536 14.2995C17.1537 13.2711 15.9739 12.6298 15.6354 12.4803C15.6056 12.4671 15.5728 12.4622 15.5404 12.4663C15.508 12.4703 15.4773 12.4831 15.4517 12.5033C14.9065 12.9284 13.9887 13.7094 13.9395 13.7516C13.6217 14.0239 13.6217 14.0239 13.3615 13.9391C12.904 13.7891 11.4828 13.0344 10.2443 11.7931C9.00591 10.5519 8.21231 9.09547 8.06231 8.63844C7.97653 8.37781 7.97653 8.37782 8.24981 8.06C8.292 8.01078 9.07341 7.09297 9.49856 6.54828C9.51873 6.52263 9.53152 6.49197 9.53557 6.4596C9.53962 6.42722 9.53476 6.39436 9.52153 6.36453C9.372 6.02563 8.73075 4.84625 7.70231 3.24641C6.68138 1.65875 5.91169 0.794846 5.65106 0.550159C5.62715 0.52759 5.59758 0.51189 5.56549 0.504713C5.5334 0.497535 5.49997 0.499147 5.46872 0.509378C4.55769 0.822449 3.67869 1.22192 2.84372 1.70235C2.03766 2.17092 1.27455 2.70973 0.563246 3.3125C0.538416 3.33361 0.519801 3.36108 0.509396 3.39197C0.498991 3.42285 0.497189 3.45598 0.504184 3.48781C0.602152 3.94438 1.07043 5.85032 2.52356 8.49032C4.00622 11.1847 5.03372 12.5652 7.21106 14.735C9.38841 16.9048 10.8125 17.9942 13.5097 19.4769C16.1497 20.93 18.0565 21.3988 18.5122 21.4958C18.5441 21.5027 18.5772 21.5009 18.6082 21.4905C18.6391 21.4801 18.6667 21.4615 18.6879 21.4367C19.2906 20.7254 19.8293 19.9623 20.2976 19.1563C20.778 18.3212 21.1774 17.4422 21.4906 16.5313C21.5006 16.5002 21.5022 16.4671 21.4951 16.4353C21.488 16.4035 21.4725 16.3741 21.4503 16.3503Z" fill="#4338CA"/>
</svg>
